<?xml version="1.0" encoding="UTF-8"?>
<svg width="46px" height="79px" viewBox="0 0 46 79" version="1.1" xmlns="http://www.w3.org/2000/svg" xmlns:xlink="http://www.w3.org/1999/xlink">
    <title>Jasmine</title>
    <g id="Page-1" stroke="none" stroke-width="1" fill="none" fill-rule="evenodd">
        <g id="Light-Icons" transform="translate(-162, -243)">
            <g id="Jasmine" transform="translate(162, 243.6801)">
                <polygon id="Rectangle" fill="#5E8949" points="18.7282893 26.0194379 25.684511 26.0194379 25.684511 42.0722573 25.684511 59.1952646 18.7282893 59.1952646 18.7282893 45.8179151"></polygon>
                <path d="M25.2427293,3.06232929 C25.795014,3.06232929 26.2427293,3.78103852 26.2427293,4.66761123 L26.2427293,10.5709061 L26.2427293,16.9747727 C26.2427293,17.8613455 25.795014,18.5800547 25.2427293,18.5800547 C24.6904445,18.5800547 24.2427293,17.8613455 24.2427293,16.9747727 L24.2427293,4.66761123 C24.2427293,3.78103852 24.6904445,3.06232929 25.2427293,3.06232929 Z" id="Rectangle" fill="#FFF869" transform="translate(25.2427, 10.8212) scale(-1, -1) rotate(29) translate(-25.2427, -10.8212)"></path>
                <path d="M19.2618042,3 C19.8140889,3 20.2618042,3.71870923 20.2618042,4.60528194 L20.2618042,10.5085768 L20.2618042,16.9124434 C20.2618042,17.7990162 19.8140889,18.5177254 19.2618042,18.5177254 C18.7095194,18.5177254 18.2618042,17.7990162 18.2618042,16.9124434 L18.2618042,4.60528194 C18.2618042,3.71870923 18.7095194,3 19.2618042,3 Z" id="Rectangle" fill="#FFF869" transform="translate(19.2618, 10.7589) scale(-1, 1) rotate(36) translate(-19.2618, -10.7589)"></path>
                <path d="M22.2618042,0 C22.8140889,0 23.2618042,0.71870923 23.2618042,1.60528194 L23.2618042,7.50857682 L23.2618042,13.9124434 C23.2618042,14.7990162 22.8140889,15.5177254 22.2618042,15.5177254 C21.7095194,15.5177254 21.2618042,14.7990162 21.2618042,13.9124434 L21.2618042,1.60528194 C21.2618042,0.71870923 21.7095194,0 22.2618042,0 Z" id="Rectangle" fill="#FFF869" transform="translate(22.2618, 7.7589) scale(-1, 1) translate(-22.2618, -7.7589)"></path>
                <ellipse id="Oval" fill="#EDECEC" transform="translate(31.844, 20.4843) scale(-1, 1) rotate(138) translate(-31.844, -20.4843)" cx="31.8440437" cy="20.4842952" rx="5.0833928" ry="14.7150844"></ellipse>
                <ellipse id="Oval" fill="#EDECEC" transform="translate(13.6389, 20.4843) rotate(138) translate(-13.6389, -20.4843)" cx="13.6389347" cy="20.484304" rx="5.0833928" ry="14.7150844"></ellipse>
                <ellipse id="Oval" fill="#EDECEC" transform="translate(27.0222, 19.0632) rotate(-165) translate(-27.0222, -19.0632)" cx="27.0222459" cy="19.0632162" rx="5.0833928" ry="12.3071615"></ellipse>
                <ellipse id="Oval" fill="#EDECEC" transform="translate(20.066, 19.0632) rotate(152) translate(-20.066, -19.0632)" cx="20.0660242" cy="19.0632162" rx="5.0833928" ry="12.3071615"></ellipse>
                <ellipse id="Oval" fill="#EDECEC" transform="translate(22.2064, 15.3176) rotate(179) translate(-22.2064, -15.3176)" cx="22.2064001" cy="15.3175584" rx="5.0833928" ry="12.3071615"></ellipse>
                <polygon id="Rectangle-2" fill="#624747" points="0 53.8443248 44.4128002 53.8443248 44.4128002 64.5462044 0 64.5462044 0 58.6601706"></polygon>
                <polygon id="Rectangle-2" fill="#624747" points="5.88603376 61.3356405 38.5267665 61.3356405 38.5267665 66.1514863 38.5267665 70.4322381 22.3984044 70.4322381 16.2542665 70.4322381 5.88603376 70.4322381"></polygon>
                <rect id="Rectangle-2" fill="#624747" x="10.7018796" y="68.8269562" width="23.0090411" height="9.09659764"></rect>
                <path d="M17.7721208,35.3557758 C18.6586935,35.3557758 19.3774027,36.074485 19.3774027,36.9610577 L19.3774027,42.8643526 L19.3774027,49.2682192 C19.3774027,50.154792 18.6586935,50.8735012 17.7721208,50.8735012 C16.8855481,50.8735012 16.1668389,50.154792 16.1668389,49.2682192 L16.1668389,36.9610577 C16.1668389,36.074485 16.8855481,35.3557758 17.7721208,35.3557758 Z" id="Rectangle" fill="#5E8949" transform="translate(17.7721, 43.1146) scale(-1, 1) rotate(61) translate(-17.7721, -43.1146)"></path>
                <path d="M27.5173087,29.2357073 C28.5516436,29.2357073 29.3901377,30.0742014 29.3901377,31.1085362 L29.3901377,36.7442841 L29.3901377,42.8806038 C29.3901377,43.9149386 28.5516436,44.7534327 27.5173087,44.7534327 C26.4829739,44.7534327 25.6444798,43.9149386 25.6444798,42.8806038 L25.6444798,31.1085362 C25.6444798,30.0742014 26.4829739,29.2357073 27.5173087,29.2357073 Z" id="Rectangle" fill="#5E8949" transform="translate(27.5173, 36.9946) rotate(61) translate(-27.5173, -36.9946)"></path>
            </g>
        </g>
    </g>
</svg>