<?xml version="1.0" encoding="UTF-8"?>
<svg width="47px" height="83px" viewBox="0 0 47 83" version="1.1" xmlns="http://www.w3.org/2000/svg" xmlns:xlink="http://www.w3.org/1999/xlink">
    <title>Orchid</title>
    <g id="Page-1" stroke="none" stroke-width="1" fill="none" fill-rule="evenodd">
        <g id="Light-Icons" transform="translate(-292, -246)">
            <g id="Orchid" transform="translate(292.0933, 246.0933)">
                <ellipse id="Oval-4" fill="#C557CE" transform="translate(21.9067, 21.9067) rotate(15) translate(-21.9067, -21.9067)" cx="21.906707" cy="21.906707" rx="20" ry="10"></ellipse>
                <g id="Flowers-Copy-3" transform="translate(1.9067, 30.8403)">
                    <polygon id="Rectangle" fill="#5E8949" points="18.7282893 0 25.684511 0 25.684511 16.0528194 25.684511 33.1758267 18.7282893 33.1758267 18.7282893 19.7984772"></polygon>
                    <polygon id="Rectangle-2" fill="#624747" points="0 27.8248869 44.4128002 27.8248869 44.4128002 38.5267665 0 38.5267665 0 32.6407327"></polygon>
                    <polygon id="Rectangle-2" fill="#624747" points="5.88603376 35.3162026 38.5267665 35.3162026 38.5267665 40.1320484 38.5267665 44.4128002 22.3984044 44.4128002 16.2542665 44.4128002 5.88603376 44.4128002"></polygon>
                    <rect id="Rectangle-2" fill="#624747" x="10.7018796" y="42.8075183" width="23.0090411" height="9.09659764"></rect>
                    <path d="M14.7721208,11.3363379 C15.6586935,11.3363379 16.3774027,12.0550471 16.3774027,12.9416198 L16.3774027,18.8449147 L16.3774027,25.2487813 C16.3774027,26.1353541 15.6586935,26.8540632 14.7721208,26.8540632 C13.8855481,26.8540632 13.1668389,26.1353541 13.1668389,25.2487813 L13.1668389,12.9416198 C13.1668389,12.0550471 13.8855481,11.3363379 14.7721208,11.3363379 Z" id="Rectangle" fill="#5E8949" transform="translate(14.7721, 19.0952) scale(-1, 1) rotate(61) translate(-14.7721, -19.0952)"></path>
                    <path d="M29.5173087,5.2162694 C30.5516436,5.2162694 31.3901377,6.05476343 31.3901377,7.08909832 L31.3901377,12.7248462 L31.3901377,18.8611659 C31.3901377,19.8955007 30.5516436,20.7339948 29.5173087,20.7339948 C28.4829739,20.7339948 27.6444798,19.8955007 27.6444798,18.8611659 L27.6444798,7.08909832 C27.6444798,6.05476343 28.4829739,5.2162694 29.5173087,5.2162694 Z" id="Rectangle" fill="#5E8949" transform="translate(29.5173, 12.9751) rotate(61) translate(-29.5173, -12.9751)"></path>
                </g>
                <ellipse id="Oval-3" fill="#C557CE" transform="translate(21.9067, 21.9067) rotate(15) translate(-21.9067, -21.9067)" cx="21.906707" cy="21.906707" rx="10" ry="20"></ellipse>
            </g>
        </g>
    </g>
</svg>