<?xml version="1.0" encoding="UTF-8"?>
<svg width="54px" height="76px" viewBox="0 0 54 76" version="1.1" xmlns="http://www.w3.org/2000/svg" xmlns:xlink="http://www.w3.org/1999/xlink">
    <title>Leaves</title>
    <g id="Page-1" stroke="none" stroke-width="1" fill="none" fill-rule="evenodd">
        <g id="Main-Screen" transform="translate(-41, -379)">
            <g id="Leaves" transform="translate(41.1427, 379.0852)">
                <path d="M26.1058249,9.36288212 C27.3465253,9.36288212 28.3523116,10.2748843 28.3523116,11.3998961 L28.3523116,38.4943727 L28.3523116,67.5309487 C28.3523116,68.6559603 27.3465253,69.5679627 26.1058249,69.5679627 C24.8651245,69.5679627 23.8593382,68.6559603 23.8593382,67.5309487 L23.8593382,11.3998961 C23.8593382,10.2748843 24.8651245,9.36288212 26.1058249,9.36288212 Z" id="Rectangle" fill="#5E8949"></path>
                <path d="M8.98197396,21.7506646 C9.7364957,21.7325605 10.3334801,22.3847492 10.3153759,23.2073689 L10.2776703,24.9206398 C10.2482282,26.2584368 10.7152089,27.527743 11.572827,28.4410216 L22.4667266,40.0419489 C25.400061,43.1656603 23.0540361,48.7673997 18.8676411,48.6356935 L13.8804342,48.4787938 C11.6759165,48.4094386 9.90820652,46.6203597 9.68811431,44.2357942 L7.75184501,23.2575012 C7.67958593,22.4746184 8.25638367,21.7680746 8.98197396,21.7506646 Z" id="Rectangle" fill="#5E8949" transform="translate(15.7604, 35.1941) rotate(76) translate(-15.7604, -35.1941)"></path>
                <path d="M30.302,17.1793909 C31.0565217,17.1612867 31.6535061,17.8134754 31.635402,18.6360951 L31.5871699,20.8276723 C31.5590329,22.1061635 31.9843389,23.3245239 32.7745158,24.2290245 L44.4098438,37.5477637 C47.1914662,40.731834 44.8030515,46.1677644 40.6865034,46.0219288 L35.1751545,45.8266801 C32.963444,45.7483261 31.1985498,43.9398549 30.9957244,41.5440549 L29.0607548,18.687946 C28.9942157,17.901977 29.5743978,17.1968491 30.302,17.1793909 Z" id="Rectangle" fill="#5E8949" transform="translate(37.3329, 31.6019) scale(-1, 1) rotate(76) translate(-37.3329, -31.6019)"></path>
                <path d="M7.75548352,-0.283420589 C8.43982726,-0.256952197 9.01605435,0.355283802 9.04252275,1.08404678 L9.08905425,2.36521404 C9.1372039,3.69093414 9.68681919,4.97976896 10.6128757,5.93853912 L19.9753352,15.6317345 C23.1382814,18.9064142 21.0890756,24.3138114 16.8341912,23.9205128 L13.9973369,23.6582893 C11.7590779,23.4513967 9.86298807,21.5697875 9.50017992,19.1954775 L6.71735819,0.983975596 C6.6106272,0.285500268 7.09747666,-0.308870349 7.75548352,-0.283420589 Z" id="Rectangle" fill="#5E8949" transform="translate(14.1075, 11.8283) rotate(115) translate(-14.1075, -11.8283)"></path>
                <polygon id="Rectangle-2" fill="#624747" points="5.38822507 54.62986 46.8234249 54.62986 46.8234249 63.6832555 5.38822507 63.6832555 5.38822507 58.703888"></polygon>
                <polygon id="Rectangle-2" fill="#624747" points="10.8796371 60.9672369 41.3320127 60.9672369 41.3320127 65.0412649 41.3320127 68.6626231 26.2849565 68.6626231 20.5527446 68.6626231 10.8796371 68.6626231"></polygon>
                <rect id="Rectangle-2" fill="#624747" x="15.3726105" y="67.3046138" width="21.4664287" height="7.69538623"></rect>
            </g>
        </g>
    </g>
</svg>