<?xml version="1.0" encoding="UTF-8"?>
<svg width="45px" height="76px" viewBox="0 0 45 76" version="1.1" xmlns="http://www.w3.org/2000/svg" xmlns:xlink="http://www.w3.org/1999/xlink">
    <title>Tulip</title>
    <g id="Page-1" stroke="none" stroke-width="1" fill="none" fill-rule="evenodd">
        <g id="Light-Icons" transform="translate(-232, -10)">
            <g id="Tulip" transform="translate(232, 11)">
                <g id="Group-4" transform="translate(-2, -8)">
                    <g id="Flowers-Copy-3" transform="translate(2, 7.8377)">
                        <polygon id="Rectangle" fill="#5E8949" points="18.7282893 23.0958841 25.684511 23.0958841 25.684511 39.1487034 25.684511 56.2717107 18.7282893 56.2717107 18.7282893 42.8943613"></polygon>
                        <polygon id="Rectangle-2" fill="#624747" points="0 50.920771 44.4128002 50.920771 44.4128002 61.6226505 0 61.6226505 0 55.7366168"></polygon>
                        <polygon id="Rectangle-2" fill="#624747" points="5.88603376 58.4120867 38.5267665 58.4120867 38.5267665 63.2279325 38.5267665 67.5086843 22.3984044 67.5086843 16.2542665 67.5086843 5.88603376 67.5086843"></polygon>
                        <rect id="Rectangle-2" fill="#624747" x="10.7018796" y="65.9034024" width="23.0090411" height="9.09659764"></rect>
                        <path d="M14.7721208,34.4322219 C15.6586935,34.4322219 16.3774027,35.1509312 16.3774027,36.0375039 L16.3774027,41.9407988 L16.3774027,48.3446654 C16.3774027,49.2312381 15.6586935,49.9499473 14.7721208,49.9499473 C13.8855481,49.9499473 13.1668389,49.2312381 13.1668389,48.3446654 L13.1668389,36.0375039 C13.1668389,35.1509312 13.8855481,34.4322219 14.7721208,34.4322219 Z" id="Rectangle" fill="#5E8949" transform="translate(14.7721, 42.1911) scale(-1, 1) rotate(61) translate(-14.7721, -42.1911)"></path>
                        <path d="M29.5173087,28.3121535 C30.5516436,28.3121535 31.3901377,29.1506475 31.3901377,30.1849824 L31.3901377,35.8207302 L31.3901377,41.9570499 C31.3901377,42.9913848 30.5516436,43.8298789 29.5173087,43.8298789 C28.4829739,43.8298789 27.6444798,42.9913848 27.6444798,41.9570499 L27.6444798,30.1849824 C27.6444798,29.1506475 28.4829739,28.3121535 29.5173087,28.3121535 Z" id="Rectangle" fill="#5E8949" transform="translate(29.5173, 36.071) rotate(61) translate(-29.5173, -36.071)"></path>
                    </g>
                </g>
                <ellipse id="Oval-2" fill="#FFADF6" transform="translate(22.498, 12.485) rotate(180) translate(-22.498, -12.485)" cx="22.497986" cy="12.4849629" rx="5.30707507" ry="12.9496817"></ellipse>
                <path d="M32.0109668,1.36844962 C29.2567121,0.358104846 25.0564552,4.98718023 22.6294305,11.7077789 C20.2024058,18.4283775 20.4676781,24.6955454 23.2219328,25.7058902 C25.9761875,26.716235 30.1764444,22.0871596 32.6034691,15.3665609 C35.0304938,8.6459623 34.7652215,2.37879438 32.0109668,1.36844962 Z" id="Oval-3" fill="#FFADF6"></path>
                <ellipse id="Oval" fill="#FFADF6" cx="22.3840528" cy="21.7110195" rx="5.22001278" ry="5.26103507"></ellipse>
                <path d="M12.9850053,1.36844962 C10.2307506,2.37879438 9.96547831,8.6459623 12.392503,15.3665609 C14.8195277,22.0871596 19.0197846,26.716235 21.7740393,25.7058902 C24.528294,24.6955454 24.7935663,18.4283775 22.3665416,11.7077789 C19.9395169,4.98718023 15.73926,0.358104846 12.9850053,1.36844962 Z" id="Oval-4" fill="#FFADF6"></path>
            </g>
        </g>
    </g>
</svg>