<?xml version="1.0" encoding="UTF-8"?>
<svg width="46px" height="76px" viewBox="0 0 46 76" version="1.1" xmlns="http://www.w3.org/2000/svg" xmlns:xlink="http://www.w3.org/1999/xlink">
    <title>Rose</title>
    <g id="Page-1" stroke="none" stroke-width="1" fill="none" fill-rule="evenodd">
        <g id="Light-Icons" transform="translate(-293, -74)">
            <g id="Rose" transform="translate(293, 74.1403)">
                <polygon id="Rectangle" fill="#5E8949" points="18.7282893 23.0958841 25.684511 23.0958841 25.684511 39.1487034 25.684511 56.2717107 18.7282893 56.2717107 18.7282893 42.8943613"></polygon>
                <ellipse id="Oval" fill="#DB4F4F" transform="translate(31.844, 17.5607) scale(-1, 1) rotate(138) translate(-31.844, -17.5607)" cx="31.8440437" cy="17.5607413" rx="5.0833928" ry="14.7150844"></ellipse>
                <ellipse id="Oval" fill="#DB4F4F" transform="translate(13.6389, 17.5608) rotate(138) translate(-13.6389, -17.5608)" cx="13.6389347" cy="17.5607501" rx="5.0833928" ry="14.7150844"></ellipse>
                <ellipse id="Oval" fill="#DB4F4F" transform="translate(27.0222, 16.1397) rotate(-165) translate(-27.0222, -16.1397)" cx="27.0222459" cy="16.1396624" rx="5.0833928" ry="12.3071615"></ellipse>
                <ellipse id="Oval" fill="#DB4F4F" transform="translate(20.066, 16.1397) rotate(152) translate(-20.066, -16.1397)" cx="20.0660242" cy="16.1396624" rx="5.0833928" ry="12.3071615"></ellipse>
                <ellipse id="Oval" fill="#DB4F4F" transform="translate(22.2064, 12.394) rotate(179) translate(-22.2064, -12.394)" cx="22.2064001" cy="12.3940045" rx="5.0833928" ry="12.3071615"></ellipse>
                <polygon id="Rectangle-2" fill="#624747" points="0 50.920771 44.4128002 50.920771 44.4128002 61.6226505 0 61.6226505 0 55.7366168"></polygon>
                <polygon id="Rectangle-2" fill="#624747" points="5.88603376 58.4120867 38.5267665 58.4120867 38.5267665 63.2279325 38.5267665 67.5086843 22.3984044 67.5086843 16.2542665 67.5086843 5.88603376 67.5086843"></polygon>
                <rect id="Rectangle-2" fill="#624747" x="10.7018796" y="65.9034024" width="23.0090411" height="9.09659764"></rect>
                <path d="M17.7721208,32.4322219 C18.6586935,32.4322219 19.3774027,33.1509312 19.3774027,34.0375039 L19.3774027,39.9407988 L19.3774027,46.3446654 C19.3774027,47.2312381 18.6586935,47.9499473 17.7721208,47.9499473 C16.8855481,47.9499473 16.1668389,47.2312381 16.1668389,46.3446654 L16.1668389,34.0375039 C16.1668389,33.1509312 16.8855481,32.4322219 17.7721208,32.4322219 Z" id="Rectangle" fill="#5E8949" transform="translate(17.7721, 40.1911) scale(-1, 1) rotate(61) translate(-17.7721, -40.1911)"></path>
                <path d="M27.5173087,26.3121535 C28.5516436,26.3121535 29.3901377,27.1506475 29.3901377,28.1849824 L29.3901377,33.8207302 L29.3901377,39.9570499 C29.3901377,40.9913848 28.5516436,41.8298789 27.5173087,41.8298789 C26.4829739,41.8298789 25.6444798,40.9913848 25.6444798,39.9570499 L25.6444798,28.1849824 C25.6444798,27.1506475 26.4829739,26.3121535 27.5173087,26.3121535 Z" id="Rectangle" fill="#5E8949" transform="translate(27.5173, 34.071) rotate(61) translate(-27.5173, -34.071)"></path>
            </g>
        </g>
    </g>
</svg>