<?xml version="1.0" encoding="UTF-8"?>
<svg width="45px" height="76px" viewBox="0 0 45 76" version="1.1" xmlns="http://www.w3.org/2000/svg" xmlns:xlink="http://www.w3.org/1999/xlink">
    <title>Fruity</title>
    <g id="Page-1" stroke="none" stroke-width="1" fill="none" fill-rule="evenodd">
        <g id="Light-Icons" transform="translate(-38, -246)">
            <g id="Fruity" transform="translate(38, 246.7704)">
                <path d="M21.4655172,0 C22.7510076,0 23.7931034,1.04209584 23.7931034,2.32758621 L23.7931034,33.2869855 L23.7931034,66.4655172 C23.7931034,67.7510074 22.7510076,68.7931034 21.4655172,68.7931034 C20.1800269,68.7931034 19.137931,67.7510074 19.137931,66.4655172 L19.137931,2.32758621 C19.137931,1.04209584 20.1800269,0 21.4655172,0 Z" id="Rectangle" fill="#567944"></path>
                <path d="M30.6469071,0.54891505 C31.5039007,0.54891505 32.1986313,1.24364561 32.1986313,2.10063919 L32.1986313,10.0594823 L32.1986313,18.6523633 C32.1986313,19.5093569 31.5039007,20.2040874 30.6469071,20.2040874 C29.7899135,20.2040874 29.095183,19.5093569 29.095183,18.6523633 L29.095183,2.10063919 C29.095183,1.24364561 29.7899135,0.54891505 30.6469071,0.54891505 Z" id="Rectangle" fill="#567944" transform="translate(30.6469, 10.3765) rotate(71) translate(-30.6469, -10.3765)"></path>
                <path d="M30.6469071,0.54891505 C31.5039007,0.54891505 32.1986313,1.24364561 32.1986313,2.10063919 L32.1986313,10.0594823 L32.1986313,18.6523633 C32.1986313,19.5093569 31.5039007,20.2040874 30.6469071,20.2040874 C29.7899135,20.2040874 29.095183,19.5093569 29.095183,18.6523633 L29.095183,2.10063919 C29.095183,1.24364561 29.7899135,0.54891505 30.6469071,0.54891505 Z" id="Rectangle" fill="#567944" transform="translate(30.6469, 10.3765) rotate(71) translate(-30.6469, -10.3765)"></path>
                <polygon id="Rectangle-2" fill="#624747" points="0 51.7241379 42.9310345 51.7241379 42.9310345 62.0689655 0 62.0689655 0 56.3793103"></polygon>
                <polygon id="Rectangle-2" fill="#624747" points="5.68965517 58.9655172 37.2413793 58.9655172 37.2413793 63.6206897 37.2413793 67.7586207 21.6511156 67.7586207 15.7119676 67.7586207 5.68965517 67.7586207"></polygon>
                <rect id="Rectangle-2" fill="#624747" x="10.3448276" y="66.2068966" width="22.2413793" height="8.79310345"></rect>
                <path d="M14.0951963,7.79029435 C14.9521899,7.79029435 15.6469204,8.48502493 15.6469204,9.34201848 L15.6469204,17.3008617 L15.6469204,25.8937426 C15.6469204,26.7507362 14.9521899,27.4454668 14.0951963,27.4454668 C13.2382027,27.4454668 12.5434722,26.7507362 12.5434722,25.8937426 L12.5434722,9.34201848 C12.5434722,8.48502493 13.2382027,7.79029435 14.0951963,7.79029435 Z" id="Rectangle" fill="#567944" transform="translate(14.0952, 17.6179) scale(-1, 1) rotate(71) translate(-14.0952, -17.6179)"></path>
                <path d="M30.6469204,22.7902574 C31.503914,22.7902574 32.1986446,23.484988 32.1986446,24.3419815 L32.1986446,32.3008247 L32.1986446,40.8937057 C32.1986446,41.7506993 31.503914,42.4454298 30.6469204,42.4454298 C29.7899268,42.4454298 29.0951963,41.7506993 29.0951963,40.8937057 L29.0951963,24.3419815 C29.0951963,23.484988 29.7899268,22.7902574 30.6469204,22.7902574 Z" id="Rectangle" fill="#567944" transform="translate(30.6469, 32.6178) rotate(-109) translate(-30.6469, -32.6178)"></path>
                <path d="M7.22068966,30.3103448 C11.1628601,30.3103448 12.9310345,29.4938946 12.9310345,25.5517241 C12.9310345,23.5195718 11.4387692,20.6654653 10.0758621,19.3655172 C8.79486693,18.1436972 9.13070783,16.0344828 7.22068966,16.0344828 C5.39168824,16.0344828 5.15269954,18.2343147 3.88965517,19.3655172 C2.43037461,20.6724721 1.03448276,23.4385551 1.03448276,25.5517241 C1.03448276,29.4938946 3.2785192,30.3103448 7.22068966,30.3103448 Z" id="Oval" fill="#DDBA6C" transform="translate(6.9828, 23.1724) scale(-1, 1) translate(-6.9828, -23.1724)"></path>
                <path d="M37.6965517,40.7586207 C40.9531273,40.7586207 42.4137931,40.0841618 42.4137931,36.8275862 C42.4137931,35.1488517 41.1810522,32.7911115 40.0551724,31.7172414 C38.996959,30.7079118 39.2743928,28.9655172 37.6965517,28.9655172 C36.1856375,28.9655172 35.9882121,30.7827697 34.9448276,31.7172414 C33.7393349,32.7968997 32.5862069,35.0819248 32.5862069,36.8275862 C32.5862069,40.0841618 34.4399762,40.7586207 37.6965517,40.7586207 Z" id="Oval" fill="#B7C45B" transform="translate(37.5, 34.8621) scale(-1, 1) translate(-37.5, -34.8621)"></path>
                <path d="M38.7724138,22.0344828 C42.7145842,22.0344828 44.4827586,21.2180325 44.4827586,17.2758621 C44.4827586,15.2437098 42.9904933,12.3896032 41.6275862,11.0896552 C40.3465911,9.86783514 40.682432,7.75862069 38.7724138,7.75862069 C36.9434124,7.75862069 36.7044237,9.95845262 35.4413793,11.0896552 C33.9820988,12.39661 32.5862069,15.1626931 32.5862069,17.2758621 C32.5862069,21.2180325 34.8302434,22.0344828 38.7724138,22.0344828 Z" id="Oval" fill="#DDBA6C"></path>
            </g>
        </g>
    </g>
</svg>